<?xml version="1.0" encoding="UTF-8"?>
<svg id="Layer_2" xmlns="http://www.w3.org/2000/svg" viewBox="0 0 428.83 314.91">
  <defs>
    <style>
      .cls-1 {
        fill: none;
        stroke: #fff;
        stroke-miterlimit: 10;
      }
    </style>
  </defs>
  <g id="svg1">
    <path class="cls-1" d="M81.35,313.26s7.96-24.09,11.66-31.74,5.01-9.76,11.08-21.11,11.88-19.79,18.47-27.18,11.35-12.93,16.36-22.17,7.39-13.72,7.39-16.1,0-7.39,2.38-13.46,4.22-9.5,4.49-12.67-.53-7.65,0-9.5,3.17-6.6,1.85-8.71-2.11-4.13-6.33-4.18-10.03,1.8-12.4,6.03-4.79,15.97-5.34,19.63c-1.06,7.11-1,17.05-1,17.05,0,0-7.39-9.5-8.44-12.14s-2.84-9.76-3.14-13.2,3.93-19.79,4.19-22.7.26-16.36,1.32-21.9,2.64-16.1,2.38-19-1.85-7.65-3.17-9.24-5.01-3.43-7.92-2.64-5.01,8.44-6.07,10.82-5.81,26.65-6.6,28.77-3.69,12.4-3.43,15.31.53,6.07.53,6.07l-8.97-.53s-3.43-5.54-3.43-7.92-.53-9.5-2.11-12.4-6.86-17.95-8.44-22.96-5.01-14.37-6.86-17.34-7.28-6.1-10.29-6.14c-7.13-.1-8.44,4.75-7.39,7.65s8.18,35.1,9.76,40.11,6.86,26.13,6.86,26.13c0,0-11.61-20.06-13.99-27.71s-7.32-20.39-10.82-23.75c-4.73-4.55-12.62-2.17-12.4,4.22.14,3.96,3.43,17.15,6.6,25.33,1.68,4.34,5.07,13.35,7.88,20.87,2.49,6.65,4.53,12.12,4.53,12.12,0,0-3.43,2.64-6.07,2.38s-13.2-10.03-17.15-13.99-15.65-13.01-18.21-14.25c-3.94-1.91-10.91,3.6-5.01,10.56,4.95,5.84,30.88,40.11,30.88,40.11,0,0,15.57,35.89,16.36,40.64s.53,14.25-2.11,19-20.58,30.08-20.58,30.08l-6.6,9.76s-.79,11.35,0,15.04,2.38,6.94,2.38,6.94h56.96Z"/>
    <path class="cls-1" d="M41.91,262.47c-8.99,3.66-15.45,7.25-18.14,9.41-1.05.85-2.64,2.4-3.58,4.83-.23.59-.34,1.28-.34,2.23,0,5.46,1.77,10.59,1.77,10.59h0"/>
    <path class="cls-1" d="M.44,313.26c5.03-8.88,11.8-20.86,19.42-34.31"/>
    <path class="cls-1" d="M94.59,280.91s4.71,7.06,5.49,10.4,2.16,10.4,1.57,13.34-4.51,8.62-4.51,8.62"/>
    <path class="cls-1" d="M153.2,175.94s12.81,18.35,16.39,21.69,24.73,22.11,30.09,24.79,14.6,5.96,17.58,5.96,14-1.68,18.17-4.12,12.21-8.4,15.49-11.97,14.54-19.08,14.54-19.08"/>
    <path class="cls-1" d="M145.87,144.82s-3.28-9.58-3.56-13.96-.55-18.34,0-22.99.27-9.85,3.56-13.14,7.94-9.58,13.69-10.13,30.93-2.6,30.93-2.6c0,0,19.71,3.42,27.1,2.6s34.76-10.13,38.87-13.14,5.47-2.74,5.47-2.74c0,0,.64,5.34,5.47,10.4,3.78,3.95,8.49,4.93,8.49,4.93,0,0,7.39,24.09,7.39,32.03s-.55,35.86-1.37,42.15-4.37,15.85-4.37,15.85"/>
    <path class="cls-1" d="M138.92,211.05s12.27.63,18.86-5.16,11.81-8.27,11.81-8.27"/>
    <path class="cls-1" d="M115.17,88.34s7.58-37.45,21.26-51.54c9.78-10.07,17.83-19.26,37.94-27.59,14.32-5.93,30.28-11.17,47.14-7.47s36.45,19.22,50.01,31.04c11.77,10.26,15.4,28.54,17.82,44.26s-3.62,15.48,0,24.72c2.95,7.54,7.62,10.07,10.23,20.22.12.45.45,13.85.07,14"/>
    <path class="cls-1" d="M224.24,228.38c-5.16,34-6.08,63.31,0,84.88"/>
    <path class="cls-1" d="M428.45,314.58l-11.23-13.24c-1.32-1.56-2.69-3.07-4.12-4.54-8.74-9.02-47.22-53.04-47.85-56.18-.68-3.4.27-7.61,1.63-10.74s13.05-23.39,16.73-27.74,27.06-30.6,28.69-33.31-.68-9.52-2.72-10.74-5.71.54-6.8,1.22-19.44,21.21-22.84,23.8-4.9,2.58-9.11,2.58-6.66-8.57-6.66-9.93,11.29-28.96,11.69-32.63,4.76-18.22,4.62-20.53-4.08-5.44-6.8-5.85-6.53,1.63-8.02,5.58-16.59,42.43-17.13,43.92-2.31.27-2.31-.95,6.12-20.53,6.12-23.93,3.54-21.35,5.71-27.33,1.9-11.69,0-14.14-6.93-1.77-9.65,0-6.39,8.97-6.39,8.97c0,0-12.65,35.9-12.78,40.11s-2.72,14.82-3.13,15.5-5.71-.41-5.71-.41c0,0,.14-18.22.14-22.03s-2.18-13.46-2.72-18.49-.54-17-2.58-20.12-6.53-2.31-9.25-1.36-4.49,5.3-5.85,10.61.14,45.96.14,49.22-.95,8.43-1.77,11.69-.68,9.11-1.36,10.74-3.26,12.37-3.67,14.14-4.22.14-4.9-.82-5.58-14.14-6.39-17.13-7.34-9.79-11.15-11.69-9.11.68-11.01,2.18-1.77,3.99-1.15,7.76,5.34,9.74,6.6,14.45,5.03,13.51,7.85,21.05,5.03,7.85,6.6,11.94,10.37,16.65,14.45,21.05,16.65,7.22,16.65,7.22c0,0,16.96,24.82,21.99,32.98s13.82,24.5,13.82,24.5"/>
  </g>
</svg>