<?xml version="1.0" encoding="UTF-8"?>
<svg id="Layer_2" xmlns="http://www.w3.org/2000/svg" viewBox="0 0 253.77 317.25">
  <defs>
    <style>
      .cls-1 {
        fill: none;
      }

      .cls-1, .cls-2 {
        stroke: #fff;
        stroke-miterlimit: 10;
      }

      .cls-2 {
        fill: #333;
      }
    </style>
  </defs>
  <g id="svg2">
    <path class="cls-1" d="M96.32,73.77s-2.22-7.82-2.05-12.25,1.02-8.86,1.36-11.41,0-3.92,0-3.92l-36.96-10.9L122.49.55l62.9,23.84-31.68,16.52s5.45,14.14,5.45,15.5.17,5.62-.51,6.47-.17-1.87-3.41-3.58-11.75-2.72-16.18-1.53-11.24,1.36-15.84,1.19-12.77.68-17.03,2.21-6.64,2.9-8,4.43-1.87,8.16-1.87,8.16Z"/>
    <path class="cls-1" d="M95.64,46.19s3.24-14.14,3.75-15.84,10.9-11.92,23.84-11.07,20.78,3.07,21.63,4.43,8.86,17.2,8.86,17.2"/>
    <path class="cls-1" d="M82.18,42.22s3.06,95.96,2.83,98.51,5.58.93,5.58-2.32-4.21-94.95-4.21-94.95"/>
    <path class="cls-1" d="M158.26,64.17l.59,5.59s1.77-2.35,2.8-1.47,2.06,2.42,1.62,5.48-1.47,7.03-1.62,8.95-1.18,4.27-1.62,5.15-.15,4.86-.44,7.06-2.21,7.8-2.21,8.39-.88,1.47-.74,4.56.59,11.77.59,11.77c0,0-1.03,7.95-3.38,11.62s-22.66,28.99-22.66,28.99c0,0-17.07-18.39-20.16-21.92s-11.45-16.28-11.45-16.28l.68-15.31s-2.55-8.68-2.89-11.74-2.38-8.17-3.57-11.06-2.47-4.51-2.47-6.23.17-2.94.66-3.94c.9-1.83,4.53-.69,4.35,0l-.94-3.09"/>
    <path class="cls-1" d="M119.07,118.95c15.91,3.69,34.64-1.52,37.57-11.08"/>
    <line class="cls-1" x1="99.57" y1="122.06" x2="90.59" y2="126.14"/>
    <path class="cls-1" d="M83.77,128.8s-14.77,6.24-15.68,6.24"/>
    <path class="cls-1" d="M47.54,138.54s-9.74,2.28-10.66,5.78-1.67,6.85-2.13,7.92-10.5,23.9-10.96,28.01-1.83,8.98-1.83,8.98c0,0-9.89,6.24-10.66,7.61s-2.28,9.13-2.28,10.2-6.39,7.31-7,10.81-1.98,13.09-1.37,19.64,1.98,17.66,1.98,19.64.61,8.98,1.37,11.26,7.76,9.44,7.76,9.44c0,0,12.33,16.59,14.77,18.72s10.05,4.57,14.46,4.57,13.09.76,15.83-3.81,5.33-12.18,6.24-17.81.61-20.85,2.13-24.36,1.83-12.33,3.2-18.88,8.68-30.75,8.68-33.19v-4.41s-9.13,29.53-11.26,31.36-3.35,3.81-5.02.46-5.78-8.37-6.55-11.72-.3-8.83-.61-13.7-1.07-11.57-1.22-15.22-.15-4.87-.15-7.15,1.07-3.96,1.07-3.96c0,0-13.55,8.52-16.14,11.26s-8.22,8.98-11.87,11.26"/>
    <path class="cls-1" d="M44.65,300.51s-4.11-.76-5.18-2.44-5.48-4.11-3.2-12.33,5.48-15.37,8.37-21.46,5.02-9.74,6.24-15.53,2.89-12.03,2.89-16.74-1.83-8.83-1.37-10.66,1.37-4.87,1.37-4.87"/>
    <path class="cls-1" d="M54.61,177.05s.07-1.24-1.24-3.45-5.31-8.48-5.93-10.89-1.17-3.24-1.17-4.55-.34-5.24-.34-7.24-.34-4.41.28-5.86,4.41-5.79,6.34-7.1,7.72-4.62,8.89-4.76,3.17-.48,3.72,1.83.14,3.75-1.03,5.68-7.44,7.17-8.51,8.2-4.45,5.51-4.45,5.86,9.1-10.55,12.06-11.58,8.82-1.86,9.93-1.93,3.52-.62,5.03-.41,4.76,2.27,3.38,4.48-7.65,6.14-7.65,6.14c0,0-6.14,2.96-8.13,4.48s-6.48,5.17-6.48,5.17c0,0,14.75-10.2,19.09-11.17s6.21-1.93,8-1.31,2.96,1.86,2.41,3.65-2.41,3.72-4,4.34-6.96,4.62-8.48,5.65-8.62,5.79-8.62,5.79c0,0,18.96-12.41,19.85-12.61s2.41.62,2.14,2.62-3.38,8.82-4.48,10-7.1,6.14-7.1,6.14c0,0,.76,1.93,1.59,3.72s3.45,5.45,3.45,5.45c0,0-3.93,7.86-4.69,9.93s-.97,4-.97,4"/>
    <polyline class="cls-1" points="49.73 139.09 42.83 131.25 55.54 120.84 73.15 141.27"/>
    <path class="cls-1" d="M89.73,161.68l13.41,17.17s-1.22,1.22-1.22,1.76-2.3-.95-3.65,0-6.2,5-6.95,6.22-1.59,3.52-1.59,3.52l-7.55-8.34"/>
    <path class="cls-1" d="M105.1,184.52s-5.71,3.17-7.77,3.89-8.8,6.66-8.96,12.93.18,12.53,1.36,15.94,8.39,15.23,8.39,15.23l-8.01-2.14s-4.01-9.3-4.44-13.32c-1.27-11.9,1.64-25.76,4.06-26.69"/>
    <path class="cls-1" d="M101.92,180.61s3.18,4.15,4.05,4.23,2.7-1.45,2.93-2.11.71-.87-.48-2.11-1.77-1.72-2.87-1.8-2.43.04-2.43.04"/>
    <path class="cls-1" d="M92.01,194.03l3.65,4.44s5.55-6.19,6.98-7.77,4.68-6.19,4.68-6.19"/>
    <path class="cls-1" d="M96.3,199.35l20.62,26.01s3.65-9.99,5.23-12.13,4.76-4.72,4.76-4.72l-19.59-23.12"/>
    <path class="cls-1" d="M109.69,182.37s2.47.35,3.27,2.46,2.25,7.35,2.25,7.93v1.93"/>
    <polyline class="cls-1" points="106.05 212.39 97.26 236.73 107.72 229.83 111.6 218.66"/>
    <path class="cls-1" d="M149.67,232.5c-1.09,1.69-5.06,5.85-8.64,8.63-2.25,1.75-5.18,3.82-7.83,5.16-1.55.78-3.01,1.32-4.18,1.39-3.18.2-3.18-2.18-3.54-3.28s1.42-3.67,1.42-3.67l16.01-16.18s-14.89,14.89-17.43,16.18-4.11-.99-4.7-1.59-.2-3.87,2.38-9.53,14.69-15.78,13.6-14.49-4.57,3.57-5.96,4.57-2.58,1.89-6.06,6.39-3.28,4.03-5.66,5.02-2.98-1.89-2.98-3.28,3.96-10.5,6.37-15.45,9.41-5.6,14.38-6.39,9.83,1.79,11.81,3.38,11.42,3.97,11.42,3.97c0,0,7.05,7.52,8.04,12.74s1.69,7.8,0,9.39-6.25,6.95-9.23,6.85-5.16-.5-5.16-.5c0,0-2.18,4.19-5.86,5.87s-6.15,2.27-8.83,1.97-4.57-.3-5.06-.99.14-2.44.14-2.44"/>
    <path class="cls-1" d="M136.15,250.04l4.84,6.41s6.09-3.18,7.17-4.3,2.24-2.4,2.24-2.4l1.79,2,4.12-5.51-2.84-3.92"/>
    <path class="cls-1" d="M163.37,241.32l7.13,6.35s-.53-4.33-.53-6.35-.81-7.11-.81-7.11"/>
    <path class="cls-1" d="M152.18,251.74s.79,16.43,1.57,19.35,7.01,17.33,8.18,22.59,7.22,23.21,7.22,23.21"/>
    <path class="cls-1" d="M170.49,247.67s-.2,18.95,0,21.87,6.44,20.84,8.38,25.71,11.49,20.64,11.49,20.64"/>
    <path class="cls-1" d="M157.23,119.65s4.12,2.74,8.02,4.45,15,7.5,16.75,7.82,15.97,5.38,18.31,5.19,4.48-3.16,6.82-2.07,16.75,13.36,19.28,16.67,8.57,13.24,8.96,16.55,7.01,17.14,10.13,21.23,7.79,13.26,7.79,15.88-1.56,22.09-1.56,25.41.39,11.19-3.51,16.89-17.53,32.58-18.31,35.5-9.54,16.94-11.69,19.87-12.97,13.86-12.97,13.86"/>
    <path class="cls-1" d="M207.25,168.99s-3.18,2.37-5.41,9.79-6.05,23.65-6.05,24.93-7.96,2.6-8.28,4.8l-.32,2.2s-2.96-1.85-5.98-2.2-7.55-2-9.06,0-3.89,3-5.22,3.17-6.83,1.66-6.83,1.66"/>
    <line class="cls-2" x1="53.78" y1="315.89" x2="56.82" y2="297.31"/>
  </g>
</svg>