<?xml version="1.0" encoding="UTF-8"?>
<svg id="Layer_2" xmlns="http://www.w3.org/2000/svg" viewBox="0 0 492.07 333.16">
  <defs>
    <style>
      .cls-1 {
        fill: none;
        stroke: #fff;
        stroke-miterlimit: 10;
      }
    </style>
  </defs>
  <g id="svg3">
    <path class="cls-1" d="M16.25,199.42s10.3-10.01,16.02-12.59,27.18-10.3,34.61-10.87,14.87-.86,19.45,0,16.02,10.87,23.17,13.16,16.88,4.29,29.18,4.86,41.48,5.44,46.91,5.44,39.76-3.43,39.76-3.43c0,0,4.08-6.71,4.47-8.57s2.58-7.02,4-8.05,7.36-1.68,9.81-1.68,7.1.77,7.1.77l.65,5.03s-4.13.9-5.03.65,5.55,0,7.23-.52,3.36-2.06,6.84-2.45,12.39-.26,13.42,0,4.13,2.71,4.52,3.74,1.03,3.61.65,4.65-4.65,3.23-5.29,3.48-.52.52.9,1.94,1.94,2.71,1.55,5.03-2.45,3.87-2.45,4.9.26,2.06.77,3.1,1.16,3.23.26,4.65-2.71,1.68-3.1,3.36.39,5.81,0,7.23-1.94,3.74-3.36,4.26-21.42,2.45-24,2.45-8.39.65-8.39.65c0,0-8.26-.26-12.65.9s-15.1,2.71-15.1,2.71c0,0-48.14,5.55-50.33,6.32s-13.16,6.58-17.42,8-29.04,6.97-35.23,6.71-8.13,2.06-16.91-2.32-32.26-19.23-37.81-22.97-24.13-17.81-26.33-20.13-7.87-10.4-7.87-10.4Z"/>
    <path class="cls-1" d="M251.03,178.43l.66-19.01s.47-1.6,2.07-2.17,4.43-1.04,5.28,0c.82,1,1.16,2.16,1.23,2.83.57,5.62-.34,19.35-.45,21.02"/>
    <polyline class="cls-1" points="157.81 240.54 320.16 275.94 401.81 235.51 274.47 208.02"/>
    <path class="cls-1" d="M80.94,248.9s-4.44,6.57-7.45,9.77-10.7,8.83-10.7,8.83c0,0-.38,9.39-1.13,14.27-.52,3.37-1.93,6.2-2.82,8-.4.81-.69,1.41-.75,1.76-.19,1.13-8.26,10.52-10.33,12.77s-18.97,12.58-24.23,14.46S.1,324.39.1,324.39"/>
    <path class="cls-1" d="M.1,63.86s17.78-2.37,21.89-2.06,13.13,1.9,15.97,2.06,7.12,1.27,7.12,1.27c0,0,6.17,20.56,8.07,23.88s7.75,10.12,10.91,13.6,8.22,11.86,9.01,15.18,2.85,11.7,2.85,11.7c0,0,.79,5.22,1.58,7.59s3.48,8.38,3.48,11.23v10.28s4.74,4.59,6.48,8.22,4.76,12.08,4.76,12.08"/>
    <path class="cls-1" d="M45.16,64.17s-.25-.63.57-1.26c.82-.63,3.21-1.45,4.92-2.71s3.84-3.28,5.17-5.1,3.84-5.1,4.98-5.92,2.84-1.83,4.79-1.2c1.95.63,6.24,3.47,8.13,5.42,1.89,1.95,2.71,3.21,2.71,3.21"/>
    <path class="cls-1" d="M67.66,51.12s6.49,19.03,7.75,21.93,7.5,22.31,8.19,26.53,6.24,29.81,7.06,32.33,1.7,2.77,1.57,3.53.06,1.89-2.39,1.76-8.82-.82-10.15-2.21-3.15-3.72-3.15-3.72"/>
    <path class="cls-1" d="M101.49,141.22s-3.43,7.49-7.49,11.94-8.26,10.87-8.26,10.87"/>
    <path class="cls-1" d="M117.49,148.97s3.05,6.88.89,15.06-2.29,8.43-2.16,12.87.13,7.49-.63,9.27-2.31,4.06-2.31,4.06"/>
    <path class="cls-1" d="M92.23,135.44s2.53.83,4.82.83,3.17-.66,5.33.94,13.46,11.5,18.03,12.9,10.03,2.29,12.44,1.9,6.09-2.41,7.62-4.83,2.16-4.06,4.44-4.19,3.56,1.02,5.97,0,8.76-5.6,10.41-7.56,2.54-5.13,5.08-4.75,8.89,2.16,10.92.76,3.05-4.95,3.05-9.52.51-8.38,2.79-9.9,4.57-1.27,7.87-4.7,15.11-24.63,16.25-29.33.76-7.17-3.17-16.22-9.9-13.62-9.9-13.62c0,0-5.59,11.3-6.98,17.14s2.16,12.32-.38,15.62-9.78-2.54-14.86-2.92-16,4.32-17.52,7.62-.38,8.48-1.9,8.56-.83.43-2.51,0-2.06.84-2.7-4.24,3.94-13.33,3.43-17.9-.73-8-.73-8c0,0,.99-.31.73-2.25s-1.52-3.84-3.81-4.73-8.51-1.02-10.03-1.14-27.3-3.56-27.3-3.56c0,0-18.79,10.54-20.82,13.21s-5.33,8.76-5.33,8.76l-7.05-17.7"/>
    <path class="cls-1" d="M76.41,55s11.67-8.39,12.72-12.89,11.84-12.29,16.18-16.33,14.98-12.29,19.48-14.98S142.17,1.06,148.47.61s24.12.45,29.67,2.4,20.38,9.59,24.42,16.03,12.89,19.93,14.08,28.17,3.3,32.81,3.3,35.36-1.2,1.95-3.15,0-3.66-2.61-6.59-3.6l-2.93-.98"/>
    <path class="cls-1" d="M58.09,291.53s8.08.56,16.9,1.88,26.67,8.08,37.37,12.58,39.44,26.67,39.44,26.67l340.27-.49"/>
  </g>
</svg>