<?xml version="1.0" encoding="UTF-8"?>
<svg id="Layer_2" xmlns="http://www.w3.org/2000/svg" viewBox="0 0 492.52 327.05">
  <defs>
    <style>
      .cls-1, .cls-2 {
        fill: none;
      }

      .cls-2 {
        stroke: #fff;
        stroke-miterlimit: 10;
      }
    </style>
  </defs>
  <g id="Layer_12">
    <path class="cls-2" d="M304.78,107.81c.8,3.66-25.06-6.96-29.32-12.83-2.39-3.29-15.1-2.16-23.3-4.75s-25.88-24.16-25.88-24.16c0,0-23.3,15.31-27.61,21.24s-9.49,21.03-9.49,26.64,5.61,17.69,12.08,28.9,11.65,20.71,15.53,23.3,8.63,2.59,8.63,2.59c0,0-2.59,11.65-1.29,15.96s4.31,8.63,7.77,9.49,6.04,5.61,8.63,9.49,8.63,7.33,12.51,11.65,7.33,12.08,9.92,17.26,6.47,10.78,9.92,12.08,23.96,5.61,23.96,5.61l9.69-9.06s-3.02-18.55-3.02-26.75,5.18-40.55,5.61-55.84-3.88-48.98-6.9-69.26-17.69-36.24-17.69-36.24"/>
    <path class="cls-2" d="M369.93,101.45s12.94,40.98,0,62.98-34.08,44-41.85,53.49-34.08,34.94-36.24,43.14-3.02,25.45-12.08,35.81-14.24,10.78-14.24,18.55v11.07l29.77-3.31s12.51-47.02,22.86-59.96,18.98-34.08,18.98-34.08c0,0-4.31,6.9.43,9.92s17.69,3.02,22,2.59,7.33-3.88,10.35.86-3.02-9.49-.43-17.26,12.51-14.67,13.37-20.28,4.31-18.98,4.31-18.98l26.32-15.1s15.96,33.08,28.04,43.07,30.2,28.11,37.53,28.97,12.95,7.33,12.95,7.33v-24.59s-75.07-103.97-90.6-124.24-37.96-51.34-45.73-59.1-28.47-23.3-38.83-29.77S291.42.5,283.66.5s-25.42,1.29-34.5,6.04-34.1,27.18-38.84,33.65-26.75,28.9-26.75,64.71c0,9.38,6.19,12.9,6.19,12.9"/>
    <path class="cls-2" d="M282.51,41.1c-2.58-1.07-5.87-.81-9.56.25-1.87.42,4.36,7.37,5.81,6.64s3.94-4.98,3.94-5.71c0-.11-.07-.54-.2-1.18-.68-3.45-2.87-13.15-3.22-14.28-.42-1.35-1.45-1.35-2.8-1.76s-5.4,1.76-5.4,1.76l-11.94,12.04-12.67,2.7c1.38,1.82,2.31,4.58,2.69,8.51l10.61-1.75c1.15-3.53,1.39-6.81-.62-9.46"/>
    <path class="cls-2" d="M249.16,50.07s-12.55.42-14.1.62-4.88,2.8-4.88,4.15.93,3.53,1.97,3.74,5.19-.31,7.06-1.35,9.95-7.16,9.95-7.16Z"/>
    <path class="cls-2" d="M246.47,41.56s-10.89-3.89-12.03-4.02-3.74-1.17-5.09-.65-4.78,2.39-4.88,3.74,3.11,15.78,4.26,17.03,3.43.93,3.43.93"/>
    <polyline class="cls-2" points="272.95 41.35 259.76 48.32 278.76 48"/>
    <path class="cls-2" d="M279.79,28.84s5.93,4.2,8.11,5.14,8.1,2.85,8.31,3.56-.73,2.05-2.39,3.3-3.84,4.9-6.33,7.49-1.45,3.41-6.23,4.14-8.62,1.04-13.7-.42-7.79-3.73-7.79-3.73"/>
    <path class="cls-2" d="M226.02,52.46s-4.36.98-5.81,1.89-4.36,4.27-4.36,4.27c0,0,8.72,4.43,11.32,4.74s9.43.52,12.5-1.87,8.26-7.19,8.88-8.42,13.18-3,13.18-3"/>
    <path class="cls-2" d="M369.93,242.51c56.54,29.38,98.11,57.54,118.5,83.98"/>
    <line class="cls-1" y1="326.98" x2="265.54" y2="326.49"/>
  </g>
</svg>