<?xml version="1.0" encoding="UTF-8"?>
<svg id="Layer_2" xmlns="http://www.w3.org/2000/svg" viewBox="0 0 493.76 297.7">
  <defs>
    <style>
      .cls-1 {
        fill: none;
        stroke: #fff;
        stroke-miterlimit: 10;
      }
    </style>
  </defs>
  <g id="Layer_13">
    <path class="cls-1" d="M399.75,128.39s-8.27,2.89-15.3,2.27-13.85-2.27-16.13-3.72-5.17-6-7.65-8.27-8.68-8.68-9.72-10.96-3.1-6.2-3.93-9.93-1.65-10.55-1.45-14.27.35-7.65-.03-13.03-1.42-8.48-1.21-12.82,1.65-11.79,2.48-13.65,1.24-4.34,2.69-4.34,2.48,4.34,4.96,4.96,10.13-2.69,13.85-3.72,7.24-3.93,10.13-1.24,3.31,5.58,6.41,8.68,12.61,10.34,16.54,12.61,10.75,7.03,10.75,7.03c0,0,9.1-11.17,11.17-12.2s5.58,0,5.58,0l9.1-10.55s-4.96-11.17-7.03-15.72-10.75-13.65-18.2-17.99-17.58-9.1-26.26-8.06-25.64,6-30.6,12.2-8.13,11.11-9.04,16.27-2.2,22.19-2.2,22.19"/>
    <path class="cls-1" d="M411.34,69.92s-9.12,18.23-9.38,19.8-1.69,8.34-.91,11.33,1.04,6.25,2.47,7.03,5.6,1.56,10.55,1.56,11.98.13,14.59-.78,7.22-4.95,9.34-7.29,5.64-7.42,6.81-13.28,1.56-6.38.78-11.98-1.43-8.07-2.21-10.55c-.16-.52-.49-1.05-.91-1.57-1.58-1.94-4.56-3.73-6-4.55-1.82-1.04-4.17-1.82-4.17-1.82,0,0,3.96-7.55,5.69-8.07s3.16-1.17,3.68,0,1.3,5.6,1.3,7.55l-.39,5.6"/>
    <path class="cls-1" d="M445.07,67.05s.81-4.43.93-7.03,0-7.68,0-7.68c0,0,4.15-6.9,2.98-12.76s-3.78-14.07-8.34-17.45-13.02-7.55-13.02-7.55l4.82,10.81s9.64,4.82,9.64,5.73,2.34,4.82,1.82,8.07-2.08,5.6-2.08,5.6l-3.81.48"/>
    <path class="cls-1" d="M386.51,3.49s15.58-2.99,19.1-2.99,8.6,1.01,13.94,2.85,6.77,2.88,8.07,5.61,2.53,6.9,2.53,6.9"/>
    <line class="cls-1" x1="431.74" y1="31.24" x2="443.6" y2="35.64"/>
    <line class="cls-1" x1="427.62" y1="24.58" x2="432.44" y2="25.38"/>
    <path class="cls-1" d="M432.31,57.81l-10.45,25.41h-3.76l10.81-27.41s-13.87,16.35-17.64,24.58-6.59,18.82-6.59,21.64,1.65,7.61,1.65,7.61"/>
    <path class="cls-1" d="M365.13,123.79l-1.69,6.96s4.32,6.22,8.18,7.81,18.85,5,21.12,3.63,10.02-8.13,11.94-11.45,14.86-21.1,14.86-21.1"/>
    <path class="cls-1" d="M354.3,112.12s-14.02,11.25-14.25,13.96-1.14,4.67-1.14,4.67l15.39,1.68-6.76,11.58,12.49,24.53,35.95-28.82-3.24,18.82s-18.63,7.72-22.49,7.95-9.54.45-12.72,7.04-9.09,22.03-9.09,22.03"/>
    <line class="cls-1" x1="363.44" y1="130.75" x2="367.45" y2="162.61"/>
    <path class="cls-1" d="M350.95,107.71s-14.54,3.14-21.12,8.14-22.26,16.81-23.4,21.81-8.63,16.19-8.63,16.19c0,0-3.18,1.52-4.54,4.25s-1.36,6.36-1.82,9.77-3.86,4.54-5.91,7.27-1.82,1.59-1.82,4.09,0,4.32-1.82,7.72-2.04,6.81-2.04,8.63,2.73-11.81,7.27-12.49,8.86-1.59,11.81-.68,13.4,8.4,13.4,8.4c0,0-3.41-16.58-3.63-21.81s-.23-14.08-.23-14.08"/>
    <path class="cls-1" d="M345.33,96.43s-9.61-2.08-10.41-2.88-3.84-4.32-3.84-7.85.32-12.49,1.76-14.89,3.52-3.76,3.52-3.76l3.84,2.8s.16,12.17,1.12,16.33,5.42,10.25,5.42,10.25"/>
    <path class="cls-1" d="M337.48,60.57l6.08,3.36-3.36,5.92-3.84-2.8c-.12-2.4-.95-5.21,1.12-6.48Z"/>
    <line class="cls-1" x1="344.87" y1="51.54" x2="338.38" y2="60.57"/>
    <path class="cls-1" d="M395.17,144.45s11.48,3.26,17.44,3.64,12.91-1.42,12.91-1.42l14.4-33.2s-.31-1.69-.67-3.72c-.31-1.78-.65-3.83-.84-5.22-.4-2.98-1.66-1.68-1.66-1.68"/>
    <path class="cls-1" d="M492.38,157.73c-2.24-5.12-5.87-11.9-11.67-18.87-5.08-6.1-10.3-10.48-14.49-13.5,0,0-15.67-8.83-17.82-10.2,0,0-.53-.31-9.15-5.4h0"/>
    <path class="cls-1" d="M286.62,208.48s1.68.39,3.35,2.32,4.64,6.57,7.35,8.25,3.35,2.45,5.15,2.45,3.61-1.16,4.38-2.32,2.19-.26,0-2.96-4.51-3.74-5.03-5.93"/>
    <path class="cls-1" d="M281.34,230.68s4.5,2.15,6.05,2.67,2.45.13,3.99,0,9.02-5.28,10.57-6.06,3.87-2.19,4.38-3.48-1.14-3.14-1.14-3.14"/>
    <line class="cls-1" x1="290.88" y1="223.65" x2="299.85" y2="220.67"/>
    <path class="cls-1" d="M297.32,233.61s3.73-.13,5.28-.52,2.71-.96,3.74-2.41,2.71-2.01,2.71-3.54,1.03-2.24,0-3.49-2.71.17-2.71.17l-1.68,4.12s-3.32,2.75-5.56,4.44c-.79.6-1.45,1.06-1.78,1.23-1.28.65-5.93-.26-5.93-.26"/>
    <path class="cls-1" d="M435.37,206.05s-.24,12.08,0,15.44-.11,7.85-.11,7.85c0,0,13.81,5.2,16.64,11.81s12.29,42.29,12.29,42.29l29.06,13.47v-28.12c-4.39,9.36-12.08,16.25-17.08,20.2"/>
    <path class="cls-1" d="M435.27,229.34l-54.47-11.81s-9.6.08-15.66-6.72-15.62-15.3-18.49-16.26-8.29-.85-8.29-.85c0,0-6.16-1.59-8.61-.85s-10.73,9.56-11.16,10.94-3.08,6.76-2.34,7.2,2.23.77,2.55.77,1.38-2.55,2.98-3.72-3.08,4.04-2.87,5.1,2.13,4.68,3.29,5.31,3.4,1.49,2.98.11-1.38-1.17-.43-3.08.32-1.28,3.19-3.51,5.42-3.5,5.42-3.5"/>
    <path class="cls-1" d="M325.18,218.56c-.56,1.91-.09,3.76,1.7,5.53,0,0,1.38-3.72,3.93-4.57s5.74-2.98,5.74-2.98"/>
    <path class="cls-1" d="M326.88,224.09c-.73,2.58-.36,6.57,1.91,6.59,1.56.01,5.14-1.85,8.76-2.19,8.14,6.17,15.93,10.03,23.39,11.72,0,0,22.92,17.48,26.93,20.08s10.16,7.8,17.01,10.87c6.85,3.07,21.26,6.14,24.81,6.14s11.1,1.89,13.23,1.89c6.3,0,9.84,1.82,14.88.95,2.19-.38,3.95-.96,5.12-1.4"/>
    <path class="cls-1" d="M.08,124.83l79.2-12.72,201.14,90.34c-.17-1.06-.08-7.29,1.86-12.61,1.02-2.8,4.85-6.61,7.41-7.44,10.19-3.32,15.44,2.32,22.65,8.4,0,0,2.31,9.51,2.54,11.65s1.28,4.03-1.06,6.59c-2.34,2.57-9.16,4.45-9.16,4.45,0,0-.39-2.84-1.68-6.19s-1.55-4.64-3.99-7.47c-2.45-2.84-4.9-6.83-9.66-5.03-4.77,1.8-13.53,13.14-13.53,13.14,0,0-4.77,5.93-4.25,9.02s1.93,4.38,2.19,6.96c.26,2.58,1.8,6.44,3.87,6.7.86.11,3.65-.03,6.68-.25,4.21-.3,8.88-.76,9.56-.91,1.16-.26,0-2.84-1.8-4.64s-2.96-3.48-4.38-3.35c-1.42.13-4.12,0-4.12,0-.77-1.72-1.55-3.44-2.32-5.15"/>
  </g>
</svg>